<?xml version="1.0" encoding="UTF-8" standalone="no"?>
<!-- Created with Inkscape (http://www.inkscape.org/) -->
<svg id="svg19135" xmlns:rdf="http://www.w3.org/1999/02/22-rdf-syntax-ns#" xmlns="http://www.w3.org/2000/svg" sodipodi:docname="audio-card.svg" xmlns:sodipodi="http://inkscape.sourceforge.net/DTD/sodipodi-0.dtd" height="48px" sodipodi:version="0.32" width="48px" xmlns:cc="http://web.resource.org/cc/" xmlns:xlink="http://www.w3.org/1999/xlink" sodipodi:docbase="/home/tigert/cvs/freedesktop.org/tango-icon-theme/scalable/devices" xmlns:dc="http://purl.org/dc/elements/1.1/">
 <defs id="defs3">
  <linearGradient id="linearGradient19474">
   <stop id="stop19476" stop-color="#fff" offset="0"/>
   <stop id="stop19478" stop-color="#939393" offset="1"/>
  </linearGradient>
  <linearGradient id="linearGradient19149">
   <stop id="stop19151" stop-color="#adadad" offset="0"/>
   <stop id="stop19153" stop-color="#747474" offset="1"/>
  </linearGradient>
  <radialGradient id="radialGradient19155" xlink:href="#linearGradient19149" gradientUnits="userSpaceOnUse" cy="34.834" cx="16.331" gradientTransform="scale(1.3479 .74188)" r="15.231"/>
  <radialGradient id="radialGradient19161" xlink:href="#linearGradient19149" gradientUnits="userSpaceOnUse" cy="41.706" cx="25.941" gradientTransform="scale(1.3479 .74188)" r="26.595"/>
  <linearGradient id="linearGradient19175" y2="68.767" gradientUnits="userSpaceOnUse" x2="16.295" gradientTransform="matrix(1.7009 0 0 .58793 -1.375 -7.2143)" y1="56.289" x1="6.8836">
   <stop id="stop19272" stop-color="#aaa" offset="0"/>
   <stop id="stop19274" stop-color="#505050" offset="1"/>
  </linearGradient>
  <linearGradient id="linearGradient19243" y2="50.805" xlink:href="#linearGradient19149" gradientUnits="userSpaceOnUse" x2="26.172" gradientTransform="matrix(1.4113 0 0 .70858 -1.5179 -6.857)" y1="50.806" x1="5.1625"/>
  <radialGradient id="radialGradient19284" gradientUnits="userSpaceOnUse" cy="47.403" cx="17.58" gradientTransform="scale(1.3575 .73664)" r="16.798">
   <stop id="stop19280" offset="0"/>
   <stop id="stop19282" stop-opacity="0" offset="1"/>
  </radialGradient>
  <radialGradient id="radialGradient19480" xlink:href="#linearGradient19474" gradientUnits="userSpaceOnUse" cy="31.265" cx="30.873" gradientTransform="scale(1.2876 .77664)" r="3.2489"/>
  <linearGradient id="linearGradient2479" y2="50.805" xlink:href="#linearGradient19149" gradientUnits="userSpaceOnUse" x2="26.172" gradientTransform="matrix(1.4113 0 0 .70858 -1.5179 -5.0161)" y1="50.806" x1="5.1625"/>
  <linearGradient id="linearGradient2503" y2="53.659" gradientUnits="userSpaceOnUse" x2="30.75" gradientTransform="matrix(1.0725 0 0 .93238 0.5 0.75)" y1="8.0809" x1="11.562">
   <stop id="stop2499" stop-color="#fff" stop-opacity=".60825" offset="0"/>
   <stop id="stop2501" stop-color="#fff" stop-opacity="0" offset="1"/>
  </linearGradient>
 </defs>
 <sodipodi:namedview id="base" bordercolor="#666666" pagecolor="#ffffff" showgrid="false" borderopacity="0.20392157"/>
 <metadata id="metadata4">
  <rdf:RDF>
   <cc:Work rdf:about="">
    <dc:format>image/svg+xml</dc:format>
    <dc:type rdf:resource="http://purl.org/dc/dcmitype/StillImage"/>
    <dc:title>Audio Card</dc:title>
    <dc:description>Audio Card Device</dc:description>
    <dc:source>http://jimmac.musichall.cz</dc:source>
    <dc:creator>
     <cc:Agent>
      <dc:title>Jakub Steiner</dc:title>
     </cc:Agent>
    </dc:creator>
    <cc:license rdf:resource="http://creativecommons.org/licenses/by-sa/2.0/"/>
    <dc:subject>
     <rdf:Bag>
      <rdf:li>sound</rdf:li>
      <rdf:li>audio</rdf:li>
      <rdf:li>card</rdf:li>
      <rdf:li>device</rdf:li>
     </rdf:Bag>
    </dc:subject>
   </cc:Work>
   <cc:License rdf:about="http://creativecommons.org/licenses/by-sa/2.0/">
    <cc:permits rdf:resource="http://web.resource.org/cc/Reproduction"/>
    <cc:permits rdf:resource="http://web.resource.org/cc/Distribution"/>
    <cc:requires rdf:resource="http://web.resource.org/cc/Notice"/>
    <cc:requires rdf:resource="http://web.resource.org/cc/Attribution"/>
    <cc:permits rdf:resource="http://web.resource.org/cc/DerivativeWorks"/>
    <cc:requires rdf:resource="http://web.resource.org/cc/ShareAlike"/>
   </cc:License>
  </rdf:RDF>
 </metadata>
 <g id="layer1">
  <path id="path19447" style="color:#000000" d="m24.062 5.5839c-4.179 0-8.074 0.8085-11.312 2.1563-0.659-0.3095-1.349-0.625-2.219-0.625-2.2242 0-4.031 1.1872-4.031 2.6562 0 0.5166 0.2696 0.9976 0.6562 1.4066-2.2221 2.043-3.5312 4.854-3.5312 7.51 0 2.011 0.798 3.724 2.125 5.416-1.3001 0.55-2.1875 1.468-2.1875 3.005 0 1.708 2.0704 3.094 4.6563 3.094 0.3731 0 0.7145-0.102 1.0624-0.157-0.1107 0.371-0.2187 0.739-0.2187 1.125v2.233c0 4.211 6.8305 7.625 15.218 7.625 8.39 0 15.189-3.414 15.189-7.625v-2.233c0-0.408-0.096-0.796-0.219-1.187 0.528 0.136 1.086 0.219 1.688 0.219 2.585 0 4.775-1.386 4.775-3.094 0-1.848-1.36-2.872-3.119-3.317 1.181-1.615 1.875-3.214 1.875-5.104 0-2.439-1.132-5.041-3.031-6.979 0.759-0.484 1.25-1.186 1.25-1.9376 0-1.469-1.807-2.6562-4.032-2.6562-1.132 0-2.142 0.3153-2.875 0.8125-3.324-1.4647-7.345-2.3438-11.719-2.3438z" fill-rule="evenodd" sodipodi:nodetypes="cccccccscccccccccsccccccc" stroke="#4c4c4c" stroke-width="2" fill="url(#linearGradient2479)"/>
  <path id="path19276" sodipodi:rx="22.804193" sodipodi:ry="12.374369" style="color:#000000" sodipodi:type="arc" d="m46.669 34.919a22.804 12.374 0 1 1 -45.608 0 22.804 12.374 0 1 1 45.608 0z" fill-rule="evenodd" transform="translate(.33211 -.64645)" sodipodi:cy="34.918526" sodipodi:cx="23.864855" fill="url(#radialGradient19284)"/>
  <path id="path19181" style="color:#000000" d="m24.295 21.455c-8.389 0-15.219 3.414-15.219 7.625-0.0001 0.696-0.0001 3.305-0.0001 4 0 4.212 6.8301 7.625 15.219 7.625 8.388 0 15.187-3.413 15.187-7.625v-4c0-4.211-6.799-7.625-15.187-7.625z" fill-rule="evenodd" sodipodi:nodetypes="ccccccc" fill="url(#linearGradient19243)"/>
  <path id="path19268" sodipodi:rx="14.285714" sodipodi:ry="6.0000000" style="color:#000000" sodipodi:type="arc" d="m39.143 35.143a14.286 6 0 1 1 -28.572 0 14.286 6 0 1 1 28.572 0z" fill-rule="evenodd" fill-opacity=".59649" transform="translate(-.48394 -6.7347)" sodipodi:cy="35.142857" sodipodi:cx="24.857143" fill="#fff"/>
  <path id="path19218" sodipodi:rx="14.285714" sodipodi:ry="6.0000000" style="color:#000000" sodipodi:type="arc" d="m39.143 35.143a14.286 6 0 1 1 -28.572 0 14.286 6 0 1 1 28.572 0z" fill-rule="evenodd" transform="translate(-.66071 -6.9999)" sodipodi:cy="35.142857" sodipodi:cx="24.857143" fill="#afafaf"/>
  <path id="path19173" style="color:#000000" d="m43.482 20.5l-5.714 9.571c-5.857 4.715-19.429 5-26.857 0.143l-5.7146-8.857 38.286-0.857z" fill-rule="evenodd" sodipodi:nodetypes="ccccc" fill="url(#linearGradient19175)"/>
  <path id="path19500" style="color:#000000" d="m24.062 6.3062c-11.276 0-20.437 5.7018-20.437 12.75 0 2.011 0.798 3.901 2.125 5.594-1.3001 0.55-2.1875 1.468-2.1875 2.562 0 1.708 2.0704 3.094 4.6563 3.094 1.4342 0 2.6712-0.454 3.5312-1.125 3.432 1.633 7.67 2.656 12.312 2.656 4.957 0 9.43-1.162 12.969-3 0.829 0.872 2.234 1.469 3.907 1.469 2.585 0 4.687-1.386 4.687-3.094 0-1.317-1.272-2.429-3.031-2.875 1.181-1.614 1.875-3.39 1.875-5.281 0-7.048-9.13-12.75-20.407-12.75z" fill-rule="evenodd" fill="#737373"/>
  <path id="path19441" sodipodi:rx="4.6845822" sodipodi:ry="3.0935922" style="color:#000000" sodipodi:type="arc" d="m47.73 28.82a4.6846 3.0936 0 1 1 -9.369 0 4.6846 3.0936 0 1 1 9.369 0z" fill-rule="evenodd" transform="translate(-34.812 -2.2261)" sodipodi:cy="28.819729" sodipodi:cx="43.045124" fill="#cbcbcb"/>
  <path id="path19443" sodipodi:rx="4.6845822" sodipodi:ry="3.0935922" style="color:#000000" sodipodi:type="arc" d="m47.73 28.82a4.6846 3.0936 0 1 1 -9.369 0 4.6846 3.0936 0 1 1 9.369 0z" fill-rule="evenodd" transform="matrix(.86024 0 0 .86024 -26.51 -14.905)" sodipodi:cy="28.819729" sodipodi:cx="43.045124" fill="#cbcbcb"/>
  <path id="path19163" sodipodi:rx="18.285715" sodipodi:ry="11.428572" style="color:#000000" sodipodi:type="arc" d="m43.857 23.714a18.286 11.429 0 1 1 -36.571 0 18.286 11.429 0 1 1 36.571 0z" fill-rule="evenodd" transform="matrix(1.1172 0 0 1.1172 -4.5145 -8.0451)" sodipodi:cy="23.714285" sodipodi:cx="25.571428" fill="#cbcbcb"/>
  <path id="path19439" sodipodi:rx="4.6845822" sodipodi:ry="3.0935922" style="color:#000000" sodipodi:type="arc" d="m47.73 28.82a4.6846 3.0936 0 1 1 -9.369 0 4.6846 3.0936 0 1 1 9.369 0z" fill-rule="evenodd" transform="translate(-2.1047 -2.2261)" sodipodi:cy="28.819729" sodipodi:cx="43.045124" fill="#cbcbcb"/>
  <path id="path19445" sodipodi:rx="4.6845822" sodipodi:ry="3.0935922" style="color:#000000" sodipodi:type="arc" d="m47.73 28.82a4.6846 3.0936 0 1 1 -9.369 0 4.6846 3.0936 0 1 1 9.369 0z" fill-rule="evenodd" transform="matrix(.86024 0 0 .86024 1.6257 -14.905)" sodipodi:cy="28.819729" sodipodi:cx="43.045124" fill="#cbcbcb"/>
  <path id="path19145" sodipodi:rx="18.285715" sodipodi:ry="11.428572" style="color:#000000" sodipodi:type="arc" d="m43.857 23.714a18.286 11.429 0 1 1 -36.571 0 18.286 11.429 0 1 1 36.571 0z" fill-rule="evenodd" transform="translate(-1.5179 -5.2661)" sodipodi:cy="23.714285" sodipodi:cx="25.571428" fill="url(#radialGradient19161)"/>
  <path id="path19147" sodipodi:rx="9.2142859" sodipodi:ry="5.0714288" style="color:#000000" sodipodi:type="arc" d="m35.429 28.071a9.2143 5.0714 0 1 1 -18.429 0 9.2143 5.0714 0 1 1 18.429 0z" fill-rule="evenodd" transform="matrix(.90124 0 0 1.0282 .55264 -6.0024)" sodipodi:cy="28.071428" sodipodi:cx="26.214285" fill="url(#radialGradient19155)"/>
  <path id="path19245" style="color:#000000" d="m38.839 11.786c11.547 11.302-12.989 25.213-30.562 12.343 3.159 3.426 9.005 5.75 15.781 5.75 10.094 0 18.281-5.128 18.281-11.437 0-2.498-1.321-4.775-3.5-6.656z" fill-rule="evenodd" sodipodi:nodetypes="ccccc" fill-opacity=".85965" fill="#fff"/>
  <path id="path19472" sodipodi:rx="2.7842331" sodipodi:ry="1.6793786" style="color:#000000" sodipodi:type="arc" d="m43.399 25.196a2.7842 1.6794 0 1 1 -5.569 0 2.7842 1.6794 0 1 1 5.569 0z" fill-rule="evenodd" transform="matrix(.79583 0 0 .94776 9.5187 3.2453)" sodipodi:cy="25.195807" sodipodi:cx="40.614445" fill="url(#radialGradient19480)"/>
  <path id="path19486" sodipodi:rx="2.7842331" sodipodi:ry="1.6793786" style="color:#000000" sodipodi:type="arc" d="m43.399 25.196a2.7842 1.6794 0 1 1 -5.569 0 2.7842 1.6794 0 1 1 5.569 0z" fill-rule="evenodd" transform="matrix(.79583 0 0 .94776 -24.913 3.2453)" sodipodi:cy="25.195807" sodipodi:cx="40.614445" fill="url(#radialGradient19480)"/>
  <path id="path19490" sodipodi:rx="2.7842331" sodipodi:ry="1.6793786" style="color:#000000" sodipodi:type="arc" d="m43.399 25.196a2.7842 1.6794 0 1 1 -5.569 0 2.7842 1.6794 0 1 1 5.569 0z" fill-rule="evenodd" transform="matrix(.67259 0 0 0.801 12.185 -11.027)" sodipodi:cy="25.195807" sodipodi:cx="40.614445" fill="url(#radialGradient19480)"/>
  <path id="path19492" sodipodi:rx="2.7842331" sodipodi:ry="1.6793786" style="color:#000000" sodipodi:type="arc" d="m43.399 25.196a2.7842 1.6794 0 1 1 -5.569 0 2.7842 1.6794 0 1 1 5.569 0z" fill-rule="evenodd" transform="matrix(.67259 0 0 0.801 -17.565 -11.027)" sodipodi:cy="25.195807" sodipodi:cx="40.614445" fill="url(#radialGradient19480)"/>
  <path id="path2495" style="color:#000000" d="m24.084 6.1675c-4.013 0-8.003 0.9012-11.111 2.1953-0.633-0.2972-1.296-0.6001-2.131-0.6001-2.1354 0-3.7451 1.0149-3.7451 2.4253 0 0.496 0.3839 0.958 0.7551 1.35-2.1335 1.962-3.7653 4.322-3.7653 6.871 0 1.931 1.1411 4.245 2.4152 5.87-1.2483 0.528-2.4752 1.41-2.4752 2.461 0 1.639 2.3627 2.97 4.8454 2.97 0.3582 0 0.686-0.098 1.0201-0.15-0.1063 0.356-0.21 0.709-0.21 1.08v2.161c0 4.044 6.5578 7.321 14.612 7.321 8.053 0 14.581-3.277 14.581-7.321v-2.161c0-0.392-0.092-0.765-0.21-1.14 0.507 0.131 1.043 0.21 1.62 0.21 2.483 0 4.876-1.331 4.876-2.97 0-1.266-1.596-2.333-3.285-2.761 1.134-1.55 2.05-3.755 2.05-5.57 0-2.341-1.337-4.5-3.161-6.361 0.73-0.465 1.201-1.138 1.201-1.86 0-1.4104-1.11-2.4253-3.246-2.4253-1.087 0-2.057 0.3027-2.76 0.7801-3.192-1.4063-7.677-2.3753-11.876-2.3753z" sodipodi:nodetypes="ccccccccccccccccccccccccc" stroke="url(#linearGradient2503)" stroke-width=".96010" fill="none"/>
 </g>
</svg>