<?xml version="1.0" encoding="UTF-8" standalone="no"?>
<svg xmlns:svg="http://www.w3.org/2000/svg" xmlns="http://www.w3.org/2000/svg" xmlns:xlink="http://www.w3.org/1999/xlink" version="1.1" width="48" height="48" id="svg3303">
  <defs id="defs3305">
    <radialGradient cx="23.25" cy="35.375" r="18.5" fx="23.25" fy="35.375" id="radialGradient2078" xlink:href="#linearGradient2072" gradientUnits="userSpaceOnUse" gradientTransform="matrix(1,0,0,0.398649,0,21.2728)"/>
    <linearGradient id="linearGradient2072">
      <stop id="stop2074" style="stop-color:#000000;stop-opacity:1" offset="0"/>
      <stop id="stop2076" style="stop-color:#000000;stop-opacity:0" offset="1"/>
    </linearGradient>
    <linearGradient x1="17.797453" y1="32.82872" x2="39.047134" y2="41.895889" id="linearGradient28396" xlink:href="#linearGradient27154" gradientUnits="userSpaceOnUse" gradientTransform="matrix(0.9250001,0,0,1,2.2625,0)"/>
    <linearGradient id="linearGradient27154">
      <stop id="stop27156" style="stop-color:#e9b96e;stop-opacity:1" offset="0"/>
      <stop id="stop27158" style="stop-color:#df9727;stop-opacity:1" offset="1"/>
    </linearGradient>
    <linearGradient x1="15.506458" y1="38.423264" x2="15.506458" y2="42.017345" id="linearGradient28393" xlink:href="#linearGradient27162" gradientUnits="userSpaceOnUse" gradientTransform="matrix(0.925,0,0,1,2.2624999,0)"/>
    <linearGradient id="linearGradient27162">
      <stop id="stop27164" style="stop-color:#d48e20;stop-opacity:1" offset="0"/>
      <stop id="stop27166" style="stop-color:#b1761a;stop-opacity:1" offset="1"/>
    </linearGradient>
    <linearGradient x1="23.604221" y1="42.586365" x2="23.604221" y2="49.793945" id="linearGradient6457" xlink:href="#linearGradient6451" gradientUnits="userSpaceOnUse" gradientTransform="translate(0,-2)"/>
    <linearGradient id="linearGradient6451">
      <stop id="stop6453" style="stop-color:#ffffff;stop-opacity:1" offset="0"/>
      <stop id="stop6455" style="stop-color:#ffffff;stop-opacity:0" offset="1"/>
    </linearGradient>
    <linearGradient x1="30.222931" y1="37.5" x2="46.53376" y2="48.689808" id="linearGradient6449" xlink:href="#linearGradient6443" gradientUnits="userSpaceOnUse" gradientTransform="translate(0,-2)"/>
    <linearGradient id="linearGradient6443">
      <stop id="stop6445" style="stop-color:#ffffff;stop-opacity:1" offset="0"/>
      <stop id="stop6447" style="stop-color:#ffffff;stop-opacity:0" offset="1"/>
    </linearGradient>
    <linearGradient x1="25.752932" y1="5.8997655" x2="39.820381" y2="29.563459" id="linearGradient6363" xlink:href="#linearGradient6357" gradientUnits="userSpaceOnUse"/>
    <linearGradient id="linearGradient6357">
      <stop id="stop6359" style="stop-color:#ffffff;stop-opacity:1" offset="0"/>
      <stop id="stop6361" style="stop-color:#ffffff;stop-opacity:0" offset="1"/>
    </linearGradient>
    <radialGradient cx="4.3920336" cy="32.307854" r="6.375" fx="4.3920336" fy="32.307854" id="radialGradient6525" xlink:href="#linearGradient2315" gradientUnits="userSpaceOnUse" gradientTransform="matrix(1,0,0,0.509804,0,16.05392)"/>
    <linearGradient id="linearGradient2315">
      <stop id="stop2317" style="stop-color:#ffffff;stop-opacity:1" offset="0"/>
      <stop id="stop2319" style="stop-color:#ffffff;stop-opacity:0" offset="1"/>
    </linearGradient>
    <radialGradient cx="4.3920336" cy="32.307854" r="6.375" fx="4.3920336" fy="32.307854" id="radialGradient6527" xlink:href="#linearGradient2315" gradientUnits="userSpaceOnUse" gradientTransform="matrix(1,0,0,0.509804,0,16.05392)"/>
  </defs>
  <g id="layer1">
    <g id="g6433" style="display:inline">
      <rect width="48" height="48" x="0" y="0" id="rect5661" style="opacity:0;fill:#2e3436;fill-opacity:1;fill-rule:evenodd;stroke:none"/>
      <g transform="translate(0,-2)" id="g5587">
        <path d="m 41.75,35.375 a 18.5,7.375 0 1 1 -37,0 18.5,7.375 0 1 1 37,0 z" transform="translate(0.75,5.25)" id="path1344" style="opacity:0.5;fill:url(#radialGradient2078);fill-opacity:1;fill-rule:evenodd;stroke:none;stroke-width:2;marker:none;visibility:visible;display:inline;overflow:visible"/>
        <path d="m 5.5,37.5 2.3268028,-4 32.6140402,0 2.059156,4 L 5.5,37.5 z" id="path27150" style="fill:url(#linearGradient28396);fill-opacity:1;fill-rule:evenodd;stroke:#8f5902;stroke-width:1px;stroke-linecap:butt;stroke-linejoin:round;stroke-opacity:1"/>
        <rect width="37" height="7" rx="0" ry="0" x="5.5" y="37.5" id="rect27148" style="fill:url(#linearGradient28393);fill-opacity:1;fill-rule:evenodd;stroke:#8f5902;stroke-width:0.99999982;stroke-linecap:round;stroke-linejoin:round;stroke-miterlimit:4;stroke-opacity:1;stroke-dasharray:none;stroke-dashoffset:0"/>
        <rect width="35" height="5" rx="0" ry="0" x="6.5" y="38.5" id="rect27152" style="opacity:0.35;fill:none;stroke:url(#linearGradient6457);stroke-width:1;stroke-linecap:round;stroke-linejoin:miter;stroke-miterlimit:4;stroke-opacity:1;stroke-dasharray:none;stroke-dashoffset:0;display:inline"/>
        <path d="m 7.2426762,36.5 1.161539,-2 31.4625858,0 1.030653,2 -33.6547778,0 z" id="path5661" style="opacity:0.5;fill:none;stroke:url(#linearGradient6449);stroke-width:1;stroke-linecap:butt;stroke-linejoin:miter;stroke-miterlimit:4;stroke-opacity:1;stroke-dasharray:none;display:inline"/>
        <rect width="6.9999995" height="7" x="28.5" y="-37.5" transform="matrix(0,1,-1,0,0,0)" id="rect19695" style="fill:#ad7fa8;fill-opacity:1;fill-rule:evenodd;stroke:#5c3566;stroke-width:0.99999982;stroke-linecap:round;stroke-linejoin:round;stroke-miterlimit:4;stroke-opacity:1;stroke-dasharray:none;stroke-dashoffset:0;display:inline"/>
        <rect width="5" height="4" x="29.5" y="-36.5" transform="matrix(0,1,-1,0,0,0)" id="rect19697" style="opacity:0.5;fill:none;stroke:#ffffff;stroke-width:0.99999988;stroke-linecap:round;stroke-linejoin:miter;stroke-miterlimit:4;stroke-opacity:1;stroke-dasharray:none;stroke-dashoffset:0;display:inline"/>
        <rect width="15" height="7" x="20.5" y="-31.5" transform="matrix(0,1,-1,0,0,0)" id="rect6575" style="fill:#8ae234;fill-opacity:1;fill-rule:evenodd;stroke:#4e9a06;stroke-width:1;stroke-linecap:round;stroke-linejoin:round;stroke-miterlimit:4;stroke-opacity:1;stroke-dasharray:none;stroke-dashoffset:0;display:inline"/>
        <rect width="19" height="7" x="16.499998" y="-24.5" transform="matrix(0,1,-1,0,0,0)" id="rect19689" style="fill:#fce94f;fill-opacity:1;fill-rule:evenodd;stroke:#c4a000;stroke-width:1;stroke-linecap:round;stroke-linejoin:round;stroke-miterlimit:4;stroke-opacity:1;stroke-dasharray:none;stroke-dashoffset:0;display:inline"/>
        <rect width="13" height="5" x="21.500002" y="-30.5" transform="matrix(0,1,-1,0,0,0)" id="rect6577" style="opacity:0.5;fill:none;stroke:#ffffff;stroke-width:1;stroke-linecap:round;stroke-linejoin:miter;stroke-miterlimit:4;stroke-opacity:1;stroke-dasharray:none;stroke-dashoffset:0;display:inline"/>
        <rect width="25" height="7" x="10.5" y="-17.5" transform="matrix(0,1,-1,0,0,0)" id="rect17902" style="fill:#fcaf3e;fill-opacity:1;fill-rule:evenodd;stroke:#ce5c00;stroke-width:1;stroke-linecap:round;stroke-linejoin:round;stroke-miterlimit:4;stroke-opacity:1;stroke-dasharray:none;stroke-dashoffset:0"/>
        <rect width="23" height="5" x="11.5" y="-16.5" transform="matrix(0,1,-1,0,0,0)" id="rect19691" style="opacity:0.5;fill:none;stroke:#ffffff;stroke-width:1;stroke-linecap:round;stroke-linejoin:miter;stroke-miterlimit:4;stroke-opacity:1;stroke-dasharray:none;stroke-dashoffset:0;display:inline"/>
        <rect width="17" height="5" x="17.5" y="-23.5" transform="matrix(0,1,-1,0,0,0)" id="rect19693" style="opacity:0.5;fill:none;stroke:#ffffff;stroke-width:0.99999994;stroke-linecap:round;stroke-linejoin:miter;stroke-miterlimit:4;stroke-opacity:1;stroke-dasharray:none;stroke-dashoffset:0;display:inline"/>
        <g id="g6519">
          <path d="m 43.5,7.500056 c 0,0 -14,1.999944 -14,1.999944 l 0,13.287088 c -0.996073,-0.346314 -2.218254,-0.436845 -3.734623,-0.116442 -2.636286,0.557038 -4.525334,2.049057 -4.23615,3.318591 0.289184,1.269534 2.658901,1.857305 5.295187,1.300266 C 29.315659,26.763112 31.549315,25.402959 31.5,24.18439 l 0,-11.378658 c 0,0 10,-1.305732 10,-1.305732 l 0,9.801637 c -6.202935,-0.931534 -7.778444,1.796766 -7.48926,3.066301 0.289184,1.269534 2.658902,1.857304 5.295188,1.300266 2.339188,-0.494262 4.028354,-1.716017 4.194072,-2.87223 l 0,-15.295918 z" id="path7042" style="fill:#ef2929;fill-opacity:1;fill-rule:nonzero;stroke:#a40000;stroke-width:0.99999994;stroke-linecap:round;stroke-linejoin:round;stroke-miterlimit:4;stroke-opacity:1;stroke-dashoffset:0;marker:none;visibility:visible;display:block"/>
          <path d="m 34.923025,24.213253 c 0.495494,-2.3932 4.857758,-2.369003 7.576975,-1.71668 l 0,-13.8473642 c 0,0 -12,1.6998662 -12,1.6998662 l 0,13.511731 c -5.010593,-1.249773 -8.038702,0.983674 -7.976051,2.036016" id="path2311" style="opacity:0.5;fill:none;stroke:url(#linearGradient6363);stroke-width:0.99999994;stroke-linecap:round;stroke-linejoin:round;stroke-miterlimit:4;stroke-opacity:1;stroke-dasharray:none;stroke-dashoffset:0;marker:none;visibility:visible;display:block"/>
          <path d="m 12.25,32.75 a 6.375,3.25 0 1 1 -12.75,0 6.375,3.25 0 1 1 12.75,0 z" transform="matrix(0.5002344,-0.07236951,0.07603465,0.4761214,20.810702,9.4024481)" id="path2313" style="opacity:0.51176471;fill:url(#radialGradient6525);fill-opacity:1;fill-rule:nonzero;stroke:none;stroke-width:1;marker:none;visibility:visible;display:block;overflow:visible"/>
          <path d="m 12.25,32.75 a 6.375,3.25 0 1 1 -12.75,0 6.375,3.25 0 1 1 12.75,0 z" transform="matrix(0.5528282,-0.06955874,0.08402881,0.4576292,32.496425,8.5694796)" id="path2323" style="opacity:0.51176471;fill:url(#radialGradient6527);fill-opacity:1;fill-rule:nonzero;stroke:none;stroke-width:1;marker:none;visibility:visible;display:block;overflow:visible"/>
        </g>
      </g>
    </g>
  </g>
</svg>