<?xml version="1.0" encoding="UTF-8" standalone="no"?>
<!-- Created with Inkscape (http://www.inkscape.org/) -->
<svg xmlns:dc="http://purl.org/dc/elements/1.1/" xmlns:cc="http://creativecommons.org/ns#" xmlns:rdf="http://www.w3.org/1999/02/22-rdf-syntax-ns#" xmlns:svg="http://www.w3.org/2000/svg" xmlns="http://www.w3.org/2000/svg" xmlns:xlink="http://www.w3.org/1999/xlink" xmlns:sodipodi="http://sodipodi.sourceforge.net/DTD/sodipodi-0.dtd" xmlns:inkscape="http://www.inkscape.org/namespaces/inkscape" width="48" height="48" id="svg2" sodipodi:version="0.32" inkscape:version="0.47 r22583" sodipodi:docname="nature.svg" inkscape:output_extension="org.inkscape.output.svg.inkscape" version="1.0" inkscape:export-filename="C:\Documents and Settings\StarkC\My Documents\My Dropbox\icons\nature.png" inkscape:export-xdpi="90" inkscape:export-ydpi="90">
  <defs id="defs4">
    <linearGradient inkscape:collect="always" id="linearGradient6392">
      <stop style="stop-color:#eeeeec;stop-opacity:1;" offset="0" id="stop6394"/>
      <stop style="stop-color:#eeeeec;stop-opacity:0;" offset="1" id="stop6396"/>
    </linearGradient>
    <linearGradient inkscape:collect="always" id="linearGradient6798">
      <stop style="stop-color:#ffffff;stop-opacity:1;" offset="0" id="stop6800"/>
      <stop style="stop-color:#ffffff;stop-opacity:0;" offset="1" id="stop6802"/>
    </linearGradient>
    <linearGradient id="linearGradient6789">
      <stop style="stop-color:#6f4501;stop-opacity:1;" offset="0" id="stop6791"/>
      <stop style="stop-color:#8f5902;stop-opacity:0;" offset="1" id="stop6793"/>
    </linearGradient>
    <linearGradient id="linearGradient6485">
      <stop style="stop-color:#2f3627;stop-opacity:1;" offset="0" id="stop6487"/>
      <stop id="stop6495" offset="0.36242044" style="stop-color:#2e3d20;stop-opacity:0.87058824;"/>
      <stop style="stop-color:#356903;stop-opacity:0;" offset="1" id="stop6489"/>
    </linearGradient>
    <linearGradient id="linearGradient6477">
      <stop style="stop-color:#2e3436;stop-opacity:1;" offset="0" id="stop6479"/>
      <stop style="stop-color:#2e3436;stop-opacity:0;" offset="1" id="stop6481"/>
    </linearGradient>
    <linearGradient id="linearGradient6469">
      <stop style="stop-color:#888a85;stop-opacity:1;" offset="0" id="stop6471"/>
      <stop style="stop-color:#888a85;stop-opacity:0;" offset="1" id="stop6473"/>
    </linearGradient>
    <linearGradient id="linearGradient6419">
      <stop style="stop-color:#97bf60;stop-opacity:1;" offset="0" id="stop6421"/>
      <stop id="stop6427" offset="0.44781807" style="stop-color:#89b74b;stop-opacity:1;"/>
      <stop style="stop-color:#5b7a31;stop-opacity:1;" offset="1" id="stop6423"/>
    </linearGradient>
    <linearGradient id="linearGradient6383">
      <stop style="stop-color:#4e9a06;stop-opacity:1;" offset="0" id="stop6385"/>
      <stop style="stop-color:#4e9a06;stop-opacity:0;" offset="1" id="stop6387"/>
    </linearGradient>
    <inkscape:perspective sodipodi:type="inkscape:persp3d" inkscape:vp_x="0 : 526.18109 : 1" inkscape:vp_y="0 : 1000 : 0" inkscape:vp_z="744.09448 : 526.18109 : 1" inkscape:persp3d-origin="372.04724 : 350.78739 : 1" id="perspective10"/>
    <linearGradient inkscape:collect="always" xlink:href="#linearGradient6789" id="linearGradient6795" x1="-1.5286624" y1="20.14777" x2="3.4853504" y2="20.14777" gradientUnits="userSpaceOnUse" gradientTransform="translate(-25.49809,9.6)"/>
    <radialGradient inkscape:collect="always" xlink:href="#linearGradient6485" id="radialGradient5584" gradientUnits="userSpaceOnUse" gradientTransform="matrix(1.066242,2.4090999e-8,-5.3043658e-8,6.6555742e-3,-1.7882799,35.654104)" cx="26.996178" cy="35.892994" fx="26.996178" fy="35.892994" r="18.374523"/>
    <linearGradient inkscape:collect="always" xlink:href="#linearGradient6789" id="linearGradient5586" gradientUnits="userSpaceOnUse" gradientTransform="matrix(-1,0,0,1,25.49809,9.6)" x1="-2.3850613" y1="20.14777" x2="3.4856977" y2="20.14777"/>
    <linearGradient inkscape:collect="always" xlink:href="#linearGradient6798" id="linearGradient5588" gradientUnits="userSpaceOnUse" x1="20" y1="31.000309" x2="30.363058" y2="31.000309"/>
    <radialGradient inkscape:collect="always" xlink:href="#linearGradient6419" id="radialGradient5590" gradientUnits="userSpaceOnUse" gradientTransform="matrix(1.3301911,-2.5480449e-8,2.2435094e-8,1.1712102,-3.1452126,-2.8037188)" cx="9.0182381" cy="15.964433" fx="9.0182381" fy="15.964433" r="7.881104"/>
    <radialGradient inkscape:collect="always" xlink:href="#linearGradient6419" id="radialGradient5592" gradientUnits="userSpaceOnUse" gradientTransform="matrix(1.3301911,-2.5480449e-8,2.2435094e-8,1.1712102,-3.1452126,-2.8037188)" cx="9.0182381" cy="15.964433" fx="9.0182381" fy="15.964433" r="7.881104"/>
    <radialGradient inkscape:collect="always" xlink:href="#linearGradient6419" id="radialGradient5594" gradientUnits="userSpaceOnUse" gradientTransform="matrix(1.2522293,-2.2513042e-8,2.4711676e-8,1.3745223,-2.1643554,-5.0718952)" cx="8.5809021" cy="13.542306" fx="8.5809021" fy="13.542306" r="7.5658598"/>
    <radialGradient inkscape:collect="always" xlink:href="#linearGradient6419" id="radialGradient5596" gradientUnits="userSpaceOnUse" gradientTransform="matrix(1.2569609,0,0,1.0730019,-2.2420193,-1.1193019)" cx="9.0271006" cy="15.249049" fx="9.0271006" fy="15.249049" r="7.6386086"/>
    <radialGradient inkscape:collect="always" xlink:href="#linearGradient6419" id="radialGradient5598" gradientUnits="userSpaceOnUse" gradientTransform="matrix(1.2377919,-4.9772384e-8,4.8952807e-8,1.2174098,-1.9401681,-2.9834257)" cx="8.1590967" cy="13.722594" fx="8.1590967" fy="13.722594" r="7.5102286"/>
    <radialGradient inkscape:collect="always" xlink:href="#linearGradient6419" id="radialGradient5600" gradientUnits="userSpaceOnUse" gradientTransform="matrix(1.3363445,-7.5639861e-8,7.5692636e-8,1.3372769,-2.8472404,-4.7785052)" cx="8.4652462" cy="14.167903" fx="8.4652462" fy="14.167903" r="7.7378116"/>
    <radialGradient inkscape:collect="always" xlink:href="#linearGradient6419" id="radialGradient5602" gradientUnits="userSpaceOnUse" gradientTransform="matrix(1.1752238,-5.7575395e-8,5.7549944e-8,1.1747043,-1.6236149,-2.6044806)" cx="9.2659445" cy="14.907942" fx="9.2659445" fy="14.907942" r="7.6386085"/>
    <radialGradient inkscape:collect="always" xlink:href="#linearGradient6419" id="radialGradient5604" gradientUnits="userSpaceOnUse" gradientTransform="matrix(1.3301911,-2.5480449e-8,2.2435094e-8,1.1712102,-3.1452126,-2.8037188)" cx="9.0182381" cy="15.964433" fx="9.0182381" fy="15.964433" r="7.881104"/>
    <radialGradient inkscape:collect="always" xlink:href="#linearGradient6392" id="radialGradient6398" cx="-0.55031848" cy="8.3256493" fx="-0.55031848" fy="8.3256493" r="1.8955414" gradientTransform="matrix(1,0,0,1.618034,0,-5.1455342)" gradientUnits="userSpaceOnUse"/>
    <radialGradient inkscape:collect="always" xlink:href="#linearGradient6392" id="radialGradient6402" gradientUnits="userSpaceOnUse" gradientTransform="matrix(1,0,0,1.618034,0,-5.1455342)" cx="-0.55031848" cy="8.3256493" fx="-0.55031848" fy="8.3256493" r="1.8955414"/>
    <radialGradient inkscape:collect="always" xlink:href="#linearGradient6392" id="radialGradient6406" gradientUnits="userSpaceOnUse" gradientTransform="matrix(1,0,0,1.618034,0,-5.1455342)" cx="-0.55031848" cy="8.3256493" fx="-0.55031848" fy="8.3256493" r="1.8955414"/>
    <radialGradient inkscape:collect="always" xlink:href="#linearGradient6392" id="radialGradient6410" gradientUnits="userSpaceOnUse" gradientTransform="matrix(1,0,0,1.618034,0,-5.1455342)" cx="-0.55031848" cy="8.3256493" fx="-0.55031848" fy="8.3256493" r="1.8955414"/>
    <radialGradient inkscape:collect="always" xlink:href="#linearGradient6392" id="radialGradient6414" gradientUnits="userSpaceOnUse" gradientTransform="matrix(1,0,0,1.618034,0,-5.1455342)" cx="-0.55031848" cy="8.3256493" fx="-0.55031848" fy="8.3256493" r="1.8955414"/>
    <linearGradient inkscape:collect="always" xlink:href="#linearGradient6789" id="linearGradient6440" gradientUnits="userSpaceOnUse" gradientTransform="matrix(-1,0,0,1,25.49809,8.6)" x1="-5.1388221" y1="20.14777" x2="6.362184" y2="20.14777"/>
    <linearGradient inkscape:collect="always" xlink:href="#linearGradient6798" id="linearGradient6443" gradientUnits="userSpaceOnUse" x1="17.119724" y1="31.000309" x2="33.590645" y2="31.000309" gradientTransform="translate(0,-1)"/>
    <radialGradient inkscape:collect="always" xlink:href="#linearGradient6419" id="radialGradient6447" gradientUnits="userSpaceOnUse" gradientTransform="matrix(1.3301911,-2.5480449e-8,2.2435094e-8,1.1712102,-3.1452126,-2.8037188)" cx="9.0182381" cy="15.964433" fx="9.0182381" fy="15.964433" r="7.881104"/>
    <radialGradient inkscape:collect="always" xlink:href="#linearGradient6419" id="radialGradient6449" gradientUnits="userSpaceOnUse" gradientTransform="matrix(1.3301911,-2.5480449e-8,2.2435094e-8,1.1712102,-3.1452126,-2.8037188)" cx="9.0182381" cy="15.964433" fx="9.0182381" fy="15.964433" r="7.881104"/>
    <radialGradient inkscape:collect="always" xlink:href="#linearGradient6419" id="radialGradient6451" gradientUnits="userSpaceOnUse" gradientTransform="matrix(1.2522293,-2.2513042e-8,2.4711676e-8,1.3745223,-2.1643554,-5.0718952)" cx="8.5809021" cy="13.542306" fx="8.5809021" fy="13.542306" r="7.5658598"/>
    <radialGradient inkscape:collect="always" xlink:href="#linearGradient6419" id="radialGradient6453" gradientUnits="userSpaceOnUse" gradientTransform="matrix(1.2569609,0,0,1.0730019,-2.2420193,-1.1193019)" cx="9.0271006" cy="15.249049" fx="9.0271006" fy="15.249049" r="7.6386086"/>
    <radialGradient inkscape:collect="always" xlink:href="#linearGradient6419" id="radialGradient6455" gradientUnits="userSpaceOnUse" gradientTransform="matrix(1.2377919,-4.9772384e-8,4.8952807e-8,1.2174098,-1.9401681,-2.9834257)" cx="8.1590967" cy="13.722594" fx="8.1590967" fy="13.722594" r="7.5102286"/>
    <radialGradient inkscape:collect="always" xlink:href="#linearGradient6419" id="radialGradient6457" gradientUnits="userSpaceOnUse" gradientTransform="matrix(1.3363445,-7.5639861e-8,7.5692636e-8,1.3372769,-2.8472404,-4.7785052)" cx="8.4652462" cy="14.167903" fx="8.4652462" fy="14.167903" r="7.7378116"/>
    <radialGradient inkscape:collect="always" xlink:href="#linearGradient6419" id="radialGradient6459" gradientUnits="userSpaceOnUse" gradientTransform="matrix(1.1752238,-5.7575395e-8,5.7549944e-8,1.1747043,-1.6236149,-2.6044806)" cx="9.2659445" cy="14.907942" fx="9.2659445" fy="14.907942" r="7.6386085"/>
    <radialGradient inkscape:collect="always" xlink:href="#linearGradient6419" id="radialGradient6461" gradientUnits="userSpaceOnUse" gradientTransform="matrix(1.3301911,-2.5480449e-8,2.2435094e-8,1.1712102,-3.1452126,-2.8037188)" cx="9.0182381" cy="15.964433" fx="9.0182381" fy="15.964433" r="7.881104"/>
    <radialGradient inkscape:collect="always" xlink:href="#linearGradient6485" id="radialGradient6474" gradientUnits="userSpaceOnUse" gradientTransform="matrix(1.066242,2.4090999e-8,-5.3043658e-8,6.6555742e-3,-1.7882799,35.654104)" cx="26.996178" cy="35.892994" fx="26.996178" fy="35.892994" r="18.374523"/>
    <radialGradient inkscape:collect="always" xlink:href="#linearGradient6485" id="radialGradient6562" gradientUnits="userSpaceOnUse" gradientTransform="matrix(1.066242,2.4090999e-8,-5.3043658e-8,6.6555742e-3,-1.7882799,35.654104)" cx="26.996178" cy="35.892994" fx="26.996178" fy="35.892994" r="18.374523"/>
    <linearGradient inkscape:collect="always" xlink:href="#linearGradient6789" id="linearGradient6564" gradientUnits="userSpaceOnUse" gradientTransform="matrix(-1,0,0,1,25.49809,8.6)" x1="-5.1388221" y1="20.14777" x2="6.362184" y2="20.14777"/>
    <linearGradient inkscape:collect="always" xlink:href="#linearGradient6798" id="linearGradient6566" gradientUnits="userSpaceOnUse" gradientTransform="translate(0,-1)" x1="17.119724" y1="31.000309" x2="33.590645" y2="31.000309"/>
    <radialGradient inkscape:collect="always" xlink:href="#linearGradient6419" id="radialGradient6568" gradientUnits="userSpaceOnUse" gradientTransform="matrix(1.3301911,-2.5480449e-8,2.2435094e-8,1.1712102,-3.1452126,-2.8037188)" cx="9.0182381" cy="15.964433" fx="9.0182381" fy="15.964433" r="7.881104"/>
    <radialGradient inkscape:collect="always" xlink:href="#linearGradient6419" id="radialGradient6570" gradientUnits="userSpaceOnUse" gradientTransform="matrix(1.3301911,-2.5480449e-8,2.2435094e-8,1.1712102,-3.1452126,-2.8037188)" cx="9.0182381" cy="15.964433" fx="9.0182381" fy="15.964433" r="7.881104"/>
    <radialGradient inkscape:collect="always" xlink:href="#linearGradient6419" id="radialGradient6572" gradientUnits="userSpaceOnUse" gradientTransform="matrix(1.2522293,-2.2513042e-8,2.4711676e-8,1.3745223,-2.1643554,-5.0718952)" cx="8.5809021" cy="13.542306" fx="8.5809021" fy="13.542306" r="7.5658598"/>
    <radialGradient inkscape:collect="always" xlink:href="#linearGradient6419" id="radialGradient6574" gradientUnits="userSpaceOnUse" gradientTransform="matrix(1.2569609,0,0,1.0730019,-2.2420193,-1.1193019)" cx="9.0271006" cy="15.249049" fx="9.0271006" fy="15.249049" r="7.6386086"/>
    <radialGradient inkscape:collect="always" xlink:href="#linearGradient6419" id="radialGradient6576" gradientUnits="userSpaceOnUse" gradientTransform="matrix(1.2377919,-4.9772384e-8,4.8952807e-8,1.2174098,-1.9401681,-2.9834257)" cx="8.1590967" cy="13.722594" fx="8.1590967" fy="13.722594" r="7.5102286"/>
    <radialGradient inkscape:collect="always" xlink:href="#linearGradient6419" id="radialGradient6578" gradientUnits="userSpaceOnUse" gradientTransform="matrix(1.3363445,-7.5639861e-8,7.5692636e-8,1.3372769,-2.8472404,-4.7785052)" cx="8.4652462" cy="14.167903" fx="8.4652462" fy="14.167903" r="7.7378116"/>
    <radialGradient inkscape:collect="always" xlink:href="#linearGradient6419" id="radialGradient6580" gradientUnits="userSpaceOnUse" gradientTransform="matrix(1.1752238,-5.7575395e-8,5.7549944e-8,1.1747043,-1.6236149,-2.6044806)" cx="9.2659445" cy="14.907942" fx="9.2659445" fy="14.907942" r="7.6386085"/>
    <radialGradient inkscape:collect="always" xlink:href="#linearGradient6419" id="radialGradient6582" gradientUnits="userSpaceOnUse" gradientTransform="matrix(1.3301911,-2.5480449e-8,2.2435094e-8,1.1712102,-3.1452126,-2.8037188)" cx="9.0182381" cy="15.964433" fx="9.0182381" fy="15.964433" r="7.881104"/>
    <radialGradient inkscape:collect="always" xlink:href="#linearGradient6392" id="radialGradient6584" gradientUnits="userSpaceOnUse" gradientTransform="matrix(1,0,0,1.618034,0,-5.1455342)" cx="-0.55031848" cy="8.3256493" fx="-0.55031848" fy="8.3256493" r="1.8955414"/>
    <radialGradient inkscape:collect="always" xlink:href="#linearGradient6392" id="radialGradient6586" gradientUnits="userSpaceOnUse" gradientTransform="matrix(1,0,0,1.618034,0,-5.1455342)" cx="-0.55031848" cy="8.3256493" fx="-0.55031848" fy="8.3256493" r="1.8955414"/>
    <radialGradient inkscape:collect="always" xlink:href="#linearGradient6392" id="radialGradient6588" gradientUnits="userSpaceOnUse" gradientTransform="matrix(1,0,0,1.618034,0,-5.1455342)" cx="-0.55031848" cy="8.3256493" fx="-0.55031848" fy="8.3256493" r="1.8955414"/>
    <radialGradient inkscape:collect="always" xlink:href="#linearGradient6392" id="radialGradient6590" gradientUnits="userSpaceOnUse" gradientTransform="matrix(1,0,0,1.618034,0,-5.1455342)" cx="-0.55031848" cy="8.3256493" fx="-0.55031848" fy="8.3256493" r="1.8955414"/>
    <radialGradient inkscape:collect="always" xlink:href="#linearGradient6392" id="radialGradient6592" gradientUnits="userSpaceOnUse" gradientTransform="matrix(1,0,0,1.618034,0,-5.1455342)" cx="-0.55031848" cy="8.3256493" fx="-0.55031848" fy="8.3256493" r="1.8955414"/>
    <radialGradient inkscape:collect="always" xlink:href="#linearGradient6485" id="radialGradient5623" gradientUnits="userSpaceOnUse" gradientTransform="matrix(1.066242,2.4090999e-8,-5.3043658e-8,0.00665557,-1.7882799,35.654104)" cx="26.996178" cy="35.892994" fx="26.996178" fy="35.892994" r="18.374523"/>
    <linearGradient inkscape:collect="always" xlink:href="#linearGradient6798" id="linearGradient5678" gradientUnits="userSpaceOnUse" gradientTransform="translate(0,2)" x1="17.119724" y1="31.000309" x2="33.590645" y2="31.000309"/>
    <linearGradient inkscape:collect="always" xlink:href="#linearGradient6789" id="linearGradient5681" gradientUnits="userSpaceOnUse" gradientTransform="matrix(-1,0,0,1,25.49809,11.6)" x1="-5.1388221" y1="20.14777" x2="6.362184" y2="20.14777"/>
    <radialGradient inkscape:collect="always" xlink:href="#linearGradient6419" id="radialGradient5685" gradientUnits="userSpaceOnUse" gradientTransform="matrix(1.3301911,-2.5480449e-8,2.2435094e-8,1.1712102,-3.1452126,-2.8037188)" cx="9.0182381" cy="15.964433" fx="9.0182381" fy="15.964433" r="7.881104"/>
    <radialGradient inkscape:collect="always" xlink:href="#linearGradient6419" id="radialGradient5687" gradientUnits="userSpaceOnUse" gradientTransform="matrix(1.3301911,-2.5480449e-8,2.2435094e-8,1.1712102,-3.1452126,-2.8037188)" cx="9.0182381" cy="15.964433" fx="9.0182381" fy="15.964433" r="7.881104"/>
    <radialGradient inkscape:collect="always" xlink:href="#linearGradient6419" id="radialGradient5689" gradientUnits="userSpaceOnUse" gradientTransform="matrix(1.2522293,-2.2513042e-8,2.4711676e-8,1.3745223,-2.1643554,-5.0718952)" cx="8.5809021" cy="13.542306" fx="8.5809021" fy="13.542306" r="7.5658598"/>
    <radialGradient inkscape:collect="always" xlink:href="#linearGradient6419" id="radialGradient5691" gradientUnits="userSpaceOnUse" gradientTransform="matrix(1.2569609,0,0,1.0730019,-2.2420193,-1.1193019)" cx="9.0271006" cy="15.249049" fx="9.0271006" fy="15.249049" r="7.6386086"/>
    <radialGradient inkscape:collect="always" xlink:href="#linearGradient6419" id="radialGradient5693" gradientUnits="userSpaceOnUse" gradientTransform="matrix(1.2377919,-4.9772384e-8,4.8952807e-8,1.2174098,-1.9401681,-2.9834257)" cx="8.1590967" cy="13.722594" fx="8.1590967" fy="13.722594" r="7.5102286"/>
    <radialGradient inkscape:collect="always" xlink:href="#linearGradient6419" id="radialGradient5695" gradientUnits="userSpaceOnUse" gradientTransform="matrix(1.3363445,-7.5639861e-8,7.5692636e-8,1.3372769,-2.8472404,-4.7785052)" cx="8.4652462" cy="14.167903" fx="8.4652462" fy="14.167903" r="7.7378116"/>
    <radialGradient inkscape:collect="always" xlink:href="#linearGradient6419" id="radialGradient5697" gradientUnits="userSpaceOnUse" gradientTransform="matrix(1.1752238,-5.7575395e-8,5.7549944e-8,1.1747043,-1.6236149,-2.6044806)" cx="9.2659445" cy="14.907942" fx="9.2659445" fy="14.907942" r="7.6386085"/>
    <radialGradient inkscape:collect="always" xlink:href="#linearGradient6419" id="radialGradient5699" gradientUnits="userSpaceOnUse" gradientTransform="matrix(1.3301911,-2.5480449e-8,2.2435094e-8,1.1712102,-3.1452126,-2.8037188)" cx="9.0182381" cy="15.964433" fx="9.0182381" fy="15.964433" r="7.881104"/>
    <radialGradient inkscape:collect="always" xlink:href="#linearGradient6392" id="radialGradient5701" gradientUnits="userSpaceOnUse" gradientTransform="matrix(1,0,0,1.618034,0,-5.1455342)" cx="-0.55031848" cy="8.3256493" fx="-0.55031848" fy="8.3256493" r="1.8955414"/>
    <radialGradient inkscape:collect="always" xlink:href="#linearGradient6392" id="radialGradient5703" gradientUnits="userSpaceOnUse" gradientTransform="matrix(1,0,0,1.618034,0,-5.1455342)" cx="-0.55031848" cy="8.3256493" fx="-0.55031848" fy="8.3256493" r="1.8955414"/>
    <radialGradient inkscape:collect="always" xlink:href="#linearGradient6392" id="radialGradient5705" gradientUnits="userSpaceOnUse" gradientTransform="matrix(1,0,0,1.618034,0,-5.1455342)" cx="-0.55031848" cy="8.3256493" fx="-0.55031848" fy="8.3256493" r="1.8955414"/>
    <radialGradient inkscape:collect="always" xlink:href="#linearGradient6392" id="radialGradient5707" gradientUnits="userSpaceOnUse" gradientTransform="matrix(1,0,0,1.618034,0,-5.1455342)" cx="-0.55031848" cy="8.3256493" fx="-0.55031848" fy="8.3256493" r="1.8955414"/>
    <radialGradient inkscape:collect="always" xlink:href="#linearGradient6392" id="radialGradient5709" gradientUnits="userSpaceOnUse" gradientTransform="matrix(1,0,0,1.618034,0,-5.1455342)" cx="-0.55031848" cy="8.3256493" fx="-0.55031848" fy="8.3256493" r="1.8955414"/>
  </defs>
  <sodipodi:namedview id="base" pagecolor="#ffffff" bordercolor="#666666" borderopacity="1.0" gridtolerance="10000" guidetolerance="10" objecttolerance="10" inkscape:pageopacity="0.0" inkscape:pageshadow="2" inkscape:zoom="1" inkscape:cx="24" inkscape:cy="14.630064" inkscape:document-units="px" inkscape:current-layer="layer1" showgrid="false" inkscape:snap-bbox="true" inkscape:snap-nodes="false" inkscape:window-width="644" inkscape:window-height="654" inkscape:window-x="1603" inkscape:window-y="78" inkscape:showpageshadow="false" showguides="true" inkscape:guide-bbox="true"/>
  <metadata id="metadata7">
    <rdf:RDF>
      <cc:Work rdf:about="">
        <dc:format>image/svg+xml</dc:format>
        <dc:type rdf:resource="http://purl.org/dc/dcmitype/StillImage"/>
      </cc:Work>
    </rdf:RDF>
  </metadata>
  <g inkscape:label="Layer 1" inkscape:groupmode="layer" id="layer1">
    <g id="g6501" transform="translate(0,-2)">
      <path sodipodi:nodetypes="cc" id="path6379" d="m 3.5,50.500002 c 4.4250855,-15.995536 36.572445,-16.004464 40.999999,0" style="fill:#97bf60;fill-opacity:1;fill-rule:evenodd;stroke:#51751e;stroke-width:1px;stroke-linecap:round;stroke-linejoin:miter;stroke-opacity:1"/>
      <path sodipodi:nodetypes="cssc" id="path5606" d="m 4.8706255,49.499999 c 0.5756447,-1.2944 1.285643,-2.458699 2.1826409,-3.495793 3.8385406,-4.438058 10.3097526,-6.463913 16.7627566,-6.470053 8.675656,0 16.737107,3.422813 19.281321,9.965846" style="opacity:0.35;fill:none;stroke:#ffffff;stroke-width:0.99999988px;stroke-linecap:round;stroke-linejoin:miter;stroke-opacity:1"/>
      <path transform="matrix(0.6530782,0,0,24.531248,6.3693854,-836.49993)" d="m 45.370701,35.892994 c 0,0.06754 -8.226554,0.122293 -18.374523,0.122293 -10.147969,0 -18.3745235,-0.05475 -18.3745235,-0.122293 0,-0.06754 8.2265545,-0.122293 18.3745235,-0.122293 10.147969,0 18.374523,0.05475 18.374523,0.122293 z" sodipodi:ry="0.122293" sodipodi:rx="18.374523" sodipodi:cy="35.892994" sodipodi:cx="26.996178" id="path6459" style="opacity:0.85;fill:url(#radialGradient5623);fill-opacity:1;fill-rule:evenodd;stroke:none" sodipodi:type="arc"/>
      <path sodipodi:nodetypes="ccccccccccccccccccccc" id="path6401" d="M 19.5,45.863693 19.5,30.5 l -9,-5 0,-2 9,5 0,-14.45414 1.717834,-0.794905 2.996178,9.966879 6.355292,-8.559095 2.996253,-0.121144 -6.065557,9.71973 0,2.242675 11,-3 0,3 -11,3 0,16 -2,-1.143313 -1,1.161784 -2,-1.467515 -2,0.81622 -1,0.996517 z" style="fill:#b49372;fill-rule:evenodd;stroke:#745536;stroke-width:1px;stroke-linecap:butt;stroke-linejoin:round;stroke-opacity:1"/>
      <path sodipodi:nodetypes="cccccccccccc" id="rect6779" d="m 27,20.771975 -4.98726,0 0,22.29346 2.40971,1.785923 0.791797,-0.929195 0.414036,-0.06072 L 27,44.65871 l 0,-15.511365 5.830573,-1.6276 0,-2.017834 L 27,27.13662 27,20.771975 z" style="fill:url(#linearGradient5681);fill-opacity:1;fill-rule:evenodd;stroke:none"/>
      <path sodipodi:nodetypes="cccccccc" id="path6415" d="m 20.5,26 0,17.775797 2.154776,-0.865006 1.692339,1.242693 0.938872,-1.072592 1.214013,0.694904 0,-15.03121 5,-1.388536" style="opacity:0.3;fill:none;stroke:url(#linearGradient5678);stroke-width:1px;stroke-linecap:round;stroke-linejoin:miter;stroke-opacity:1"/>
      <path transform="matrix(0.7838705,0,0,0.822308,4.8548657,8.7616239)" d="m 24.947771,30.084076 c 0,1.28327 -0.520148,2.323567 -1.161783,2.323567 -0.641635,0 -1.161784,-1.040297 -1.161784,-2.323567 0,-1.283271 0.520149,-2.323567 1.161784,-2.323567 0.641635,0 1.161783,1.040296 1.161783,2.323567 z" sodipodi:ry="2.3235669" sodipodi:rx="1.1617835" sodipodi:cy="30.084076" sodipodi:cx="23.785988" id="path6497" style="fill:#b49372;fill-opacity:1;fill-rule:evenodd;stroke:#745536;stroke-width:1.46803355;stroke-linecap:round;stroke-linejoin:round;stroke-miterlimit:4;stroke-opacity:1;stroke-dasharray:none;stroke-dashoffset:0" sodipodi:type="arc"/>
      <path transform="matrix(0.6344289,0,0,0.6344289,24.978448,9.060344)" d="m 18.16051,17.243313 c 0,3.917352 -3.175641,7.092994 -7.092994,7.092994 -3.9173519,0 -7.0929934,-3.175642 -7.0929934,-7.092994 0,-3.917352 3.1756415,-7.092994 7.0929934,-7.092994 3.917353,0 7.092994,3.175642 7.092994,7.092994 z" sodipodi:ry="7.0929937" sodipodi:rx="7.0929937" sodipodi:cy="17.243313" sodipodi:cx="11.067516" id="path6769" style="fill:url(#radialGradient5685);fill-opacity:1;fill-rule:evenodd;stroke:#4e9a06;stroke-width:1.57622099;stroke-linecap:round;stroke-linejoin:round;stroke-miterlimit:4;stroke-opacity:1;stroke-dasharray:none;stroke-dashoffset:0" sodipodi:type="arc"/>
      <path transform="matrix(0.6344289,0,0,0.6344289,3.9784481,16.060344)" d="m 18.16051,17.243313 c 0,3.917352 -3.175641,7.092994 -7.092994,7.092994 -3.9173519,0 -7.0929934,-3.175642 -7.0929934,-7.092994 0,-3.917352 3.1756415,-7.092994 7.0929934,-7.092994 3.917353,0 7.092994,3.175642 7.092994,7.092994 z" sodipodi:ry="7.0929937" sodipodi:rx="7.0929937" sodipodi:cy="17.243313" sodipodi:cx="11.067516" id="path6775" style="fill:url(#radialGradient5687);fill-opacity:1;fill-rule:evenodd;stroke:#51751e;stroke-width:1.57622099;stroke-linecap:round;stroke-linejoin:round;stroke-miterlimit:4;stroke-opacity:1;stroke-dasharray:none;stroke-dashoffset:0" sodipodi:type="arc"/>
      <path transform="matrix(1.0573814,0,0,1.0573815,5.2974137,-6.2327603)" d="m 18.16051,17.243313 c 0,3.917352 -3.175641,7.092994 -7.092994,7.092994 -3.9173519,0 -7.0929934,-3.175642 -7.0929934,-7.092994 0,-3.917352 3.1756415,-7.092994 7.0929934,-7.092994 3.917353,0 7.092994,3.175642 7.092994,7.092994 z" sodipodi:ry="7.0929937" sodipodi:rx="7.0929937" sodipodi:cy="17.243313" sodipodi:cx="11.067516" id="path6405" style="fill:url(#radialGradient5689);fill-opacity:1;fill-rule:evenodd;stroke:#51751e;stroke-width:0.94573247;stroke-linecap:round;stroke-linejoin:round;stroke-miterlimit:4;stroke-opacity:1;stroke-dasharray:none;stroke-dashoffset:0" sodipodi:type="arc"/>
      <path transform="matrix(0.9163973,0,0,0.9163973,-0.1422418,4.1982743)" d="m 18.16051,17.243313 c 0,3.917352 -3.175641,7.092994 -7.092994,7.092994 -3.9173519,0 -7.0929934,-3.175642 -7.0929934,-7.092994 0,-3.917352 3.1756415,-7.092994 7.0929934,-7.092994 3.917353,0 7.092994,3.175642 7.092994,7.092994 z" sodipodi:ry="7.0929937" sodipodi:rx="7.0929937" sodipodi:cy="17.243313" sodipodi:cx="11.067516" id="path6403" style="fill:url(#radialGradient5691);fill-opacity:1;fill-rule:evenodd;stroke:#51751e;stroke-width:1.0912298;stroke-linecap:round;stroke-linejoin:round;stroke-miterlimit:4;stroke-opacity:1;stroke-dasharray:none;stroke-dashoffset:0" sodipodi:type="arc"/>
      <path transform="matrix(1.1983656,0,0,1.1983656,17.737069,-7.663794)" d="m 18.16051,17.243313 c 0,3.917352 -3.175641,7.092994 -7.092994,7.092994 -3.9173519,0 -7.0929934,-3.175642 -7.0929934,-7.092994 0,-3.917352 3.1756415,-7.092994 7.0929934,-7.092994 3.917353,0 7.092994,3.175642 7.092994,7.092994 z" sodipodi:ry="7.0929937" sodipodi:rx="7.0929937" sodipodi:cy="17.243313" sodipodi:cx="11.067516" id="path6413" style="fill:url(#radialGradient5693);fill-opacity:1;fill-rule:evenodd;stroke:#51751e;stroke-width:0.8344698;stroke-linecap:round;stroke-linejoin:round;stroke-miterlimit:4;stroke-opacity:1;stroke-dasharray:none;stroke-dashoffset:0" sodipodi:type="arc"/>
      <path transform="matrix(0.7754131,0,0,0.7754131,13.418103,8.629309)" d="m 18.16051,17.243313 c 0,3.917352 -3.175641,7.092994 -7.092994,7.092994 -3.9173519,0 -7.0929934,-3.175642 -7.0929934,-7.092994 0,-3.917352 3.1756415,-7.092994 7.0929934,-7.092994 3.917353,0 7.092994,3.175642 7.092994,7.092994 z" sodipodi:ry="7.0929937" sodipodi:rx="7.0929937" sodipodi:cy="17.243313" sodipodi:cx="11.067516" id="path6407" style="fill:url(#radialGradient5695);fill-opacity:1;fill-rule:evenodd;stroke:#51751e;stroke-width:1.2896353;stroke-linecap:round;stroke-linejoin:round;stroke-miterlimit:4;stroke-opacity:1;stroke-dasharray:none;stroke-dashoffset:0" sodipodi:type="arc"/>
      <path transform="matrix(0.9163973,0,0,0.9163973,27.857758,8.1982743)" d="m 18.16051,17.243313 c 0,3.917352 -3.175641,7.092994 -7.092994,7.092994 -3.9173519,0 -7.0929934,-3.175642 -7.0929934,-7.092994 0,-3.917352 3.1756415,-7.092994 7.0929934,-7.092994 3.917353,0 7.092994,3.175642 7.092994,7.092994 z" sodipodi:ry="7.0929937" sodipodi:rx="7.0929937" sodipodi:cy="17.243313" sodipodi:cx="11.067516" id="path6409" style="fill:url(#radialGradient5697);fill-opacity:1;fill-rule:evenodd;stroke:#51751e;stroke-width:1.0912298;stroke-linecap:round;stroke-linejoin:round;stroke-miterlimit:4;stroke-opacity:1;stroke-dasharray:none;stroke-dashoffset:0" sodipodi:type="arc"/>
      <path transform="matrix(0.6344289,0,0,0.6344289,24.978448,6.060345)" d="m 18.16051,17.243313 c 0,3.917352 -3.175641,7.092994 -7.092994,7.092994 -3.9173519,0 -7.0929934,-3.175642 -7.0929934,-7.092994 0,-3.917352 3.1756415,-7.092994 7.0929934,-7.092994 3.917353,0 7.092994,3.175642 7.092994,7.092994 z" sodipodi:ry="7.0929937" sodipodi:rx="7.0929937" sodipodi:cy="17.243313" sodipodi:cx="11.067516" id="path6411" style="fill:url(#radialGradient5699);fill-opacity:1;fill-rule:evenodd;stroke:#51751e;stroke-width:1.57622099;stroke-linecap:round;stroke-linejoin:round;stroke-miterlimit:4;stroke-opacity:1;stroke-dasharray:none;stroke-dashoffset:0" sodipodi:type="arc"/>
      <path sodipodi:nodetypes="cssccsccssccc" id="path6417" d="M 8.3159236,25.240127 C 5.9319384,24.440416 4.6063668,22.452855 4.4992634,20.092718 4.4450003,18.896973 4.8930632,17.603276 5.7146156,16.57386 6.7682558,15.253634 8.4317857,14.419388 10.212725,14.541442 l 0.365618,-1.519786 c -0.487583,-4.2339659 2.319921,-6.8556467 5.10015,-7.3782723 2.800709,-0.5264755 5.716067,0.6731358 7.08329,3.40375 l 1.618281,0.3846155 c 1.846648,-3.0076117 4.40812,-4.00652 6.831802,-3.9141355 2.974099,0.1133651 4.919487,1.6562385 6.21454,3.6295416 1.612981,2.4577357 1.250715,5.9797227 -0.02004,7.6808697 l 0.453944,1.652896 c 5.44116,0.172022 7.185692,5.96494 4.147331,9.292328" style="opacity:0.47999998;fill:none;stroke:#ffffff;stroke-width:1px;stroke-linecap:round;stroke-linejoin:round;stroke-opacity:1"/>
      <path sodipodi:end="5.4977871" sodipodi:start="3.403392" transform="matrix(0.6568091,0,0,0.719955,14.730755,10.193274)" d="m 4.2162104,15.407511 c 1.0138852,-3.783872 4.9032357,-6.0293893 8.6871076,-5.015504 1.202655,0.32225 2.299297,0.955397 3.179702,1.835802" sodipodi:ry="7.0929937" sodipodi:rx="7.0929937" sodipodi:cy="17.243313" sodipodi:cx="11.067516" id="path6453" style="opacity:0.47999998;fill:none;stroke:#ffffff;stroke-width:1.45421231;stroke-linecap:round;stroke-linejoin:round;stroke-miterlimit:4;stroke-opacity:1;stroke-dasharray:none;stroke-dashoffset:0" sodipodi:type="arc" sodipodi:open="true"/>
      <path sodipodi:end="5.4977871" sodipodi:start="3.403392" transform="matrix(0.5108515,0,0,0.5746074,26.346143,7.6511893)" d="m 4.2162104,15.407511 c 1.0138852,-3.783872 4.9032357,-6.0293893 8.6871076,-5.015504 1.202655,0.32225 2.299297,0.955397 3.179702,1.835802" sodipodi:ry="7.0929937" sodipodi:rx="7.0929937" sodipodi:cy="17.243313" sodipodi:cx="11.067516" id="path6457" style="opacity:0.47999998;fill:none;stroke:#ffffff;stroke-width:1.84572566;stroke-linecap:round;stroke-linejoin:round;stroke-miterlimit:4;stroke-opacity:1;stroke-dasharray:none;stroke-dashoffset:0" sodipodi:type="arc" sodipodi:open="true"/>
      <path transform="matrix(0.7913306,0,0,0.4890692,7.935484,13.428182)" d="m 1.3452229,8.3256493 c 0,1.6938847 -0.84866276,3.0670507 -1.89554138,3.0670507 -1.04687862,0 -1.89554142,-1.373166 -1.89554142,-3.0670507 0,-1.6938852 0.8486628,-3.0670505 1.89554142,-3.0670505 1.04687862,0 1.89554138,1.3731653 1.89554138,3.0670505 z" sodipodi:ry="3.0670505" sodipodi:rx="1.8955414" sodipodi:cy="8.3256493" sodipodi:cx="-0.55031848" id="path6382" style="opacity:0.55;fill:url(#radialGradient5701);fill-opacity:1;fill-rule:evenodd;stroke:none" sodipodi:type="arc"/>
      <path transform="matrix(0.7913306,0,0,0.4890692,14.935484,4.4281815)" d="m 1.3452229,8.3256493 c 0,1.6938847 -0.84866276,3.0670507 -1.89554138,3.0670507 -1.04687862,0 -1.89554142,-1.373166 -1.89554142,-3.0670507 0,-1.6938852 0.8486628,-3.0670505 1.89554142,-3.0670505 1.04687862,0 1.89554138,1.3731653 1.89554138,3.0670505 z" sodipodi:ry="3.0670505" sodipodi:rx="1.8955414" sodipodi:cy="8.3256493" sodipodi:cx="-0.55031848" id="path6400" style="opacity:0.55;fill:url(#radialGradient5703);fill-opacity:1;fill-rule:evenodd;stroke:none" sodipodi:type="arc"/>
      <path transform="matrix(0.7913306,0,0,0.4890692,27.935484,4.4281815)" d="m 1.3452229,8.3256493 c 0,1.6938847 -0.84866276,3.0670507 -1.89554138,3.0670507 -1.04687862,0 -1.89554142,-1.373166 -1.89554142,-3.0670507 0,-1.6938852 0.8486628,-3.0670505 1.89554142,-3.0670505 1.04687862,0 1.89554138,1.3731653 1.89554138,3.0670505 z" sodipodi:ry="3.0670505" sodipodi:rx="1.8955414" sodipodi:cy="8.3256493" sodipodi:cx="-0.55031848" id="path6404" style="opacity:0.55;fill:url(#radialGradient5705);fill-opacity:1;fill-rule:evenodd;stroke:none" sodipodi:type="arc"/>
      <path transform="matrix(0.7913306,0,0,0.4890692,20.935484,15.428181)" d="m 1.3452229,8.3256493 c 0,1.6938847 -0.84866276,3.0670507 -1.89554138,3.0670507 -1.04687862,0 -1.89554142,-1.373166 -1.89554142,-3.0670507 0,-1.6938852 0.8486628,-3.0670505 1.89554142,-3.0670505 1.04687862,0 1.89554138,1.3731653 1.89554138,3.0670505 z" sodipodi:ry="3.0670505" sodipodi:rx="1.8955414" sodipodi:cy="8.3256493" sodipodi:cx="-0.55031848" id="path6408" style="opacity:0.55;fill:url(#radialGradient5707);fill-opacity:1;fill-rule:evenodd;stroke:none" sodipodi:type="arc"/>
      <path transform="matrix(0.7913306,0,0,0.4890692,30.935484,11.428182)" d="m 1.3452229,8.3256493 c 0,1.6938847 -0.84866276,3.0670507 -1.89554138,3.0670507 -1.04687862,0 -1.89554142,-1.373166 -1.89554142,-3.0670507 0,-1.6938852 0.8486628,-3.0670505 1.89554142,-3.0670505 1.04687862,0 1.89554138,1.3731653 1.89554138,3.0670505 z" sodipodi:ry="3.0670505" sodipodi:rx="1.8955414" sodipodi:cy="8.3256493" sodipodi:cx="-0.55031848" id="path6412" style="opacity:0.55;fill:url(#radialGradient5709);fill-opacity:1;fill-rule:evenodd;stroke:none" sodipodi:type="arc"/>
      <path transform="matrix(0.8607456,0,0,0.8607456,12.657895,0.7105269)" d="m 0.97834396,30.542675 c 0,0.962453 -0.78022225,1.742675 -1.74267518,1.742675 -0.96245298,0 -1.74267518,-0.780222 -1.74267518,-1.742675 0,-0.962453 0.7802222,-1.742675 1.74267518,-1.742675 0.96245293,0 1.74267518,0.780222 1.74267518,1.742675 z" sodipodi:ry="1.7426752" sodipodi:rx="1.7426752" sodipodi:cy="30.542675" sodipodi:cx="-0.76433122" id="path6416" style="fill:#df5757;fill-opacity:1;fill-rule:evenodd;stroke:#a40000;stroke-width:1.16178346;stroke-linecap:round;stroke-linejoin:round;stroke-miterlimit:4;stroke-opacity:1;stroke-dasharray:none;stroke-dashoffset:0" sodipodi:type="arc"/>
      <path transform="matrix(0.8607456,0,0,0.8607456,38.657895,4.7105269)" d="m 0.97834396,30.542675 c 0,0.962453 -0.78022225,1.742675 -1.74267518,1.742675 -0.96245298,0 -1.74267518,-0.780222 -1.74267518,-1.742675 0,-0.962453 0.7802222,-1.742675 1.74267518,-1.742675 0.96245293,0 1.74267518,0.780222 1.74267518,1.742675 z" sodipodi:ry="1.7426752" sodipodi:rx="1.7426752" sodipodi:cy="30.542675" sodipodi:cx="-0.76433122" id="path6418" style="fill:#df5757;fill-opacity:1;fill-rule:evenodd;stroke:#a40000;stroke-width:1.16178346;stroke-linecap:round;stroke-linejoin:round;stroke-miterlimit:4;stroke-opacity:1;stroke-dasharray:none;stroke-dashoffset:0" sodipodi:type="arc"/>
      <path transform="matrix(0.8607456,0,0,0.8607456,32.657895,-4.2894731)" d="m 0.97834396,30.542675 c 0,0.962453 -0.78022225,1.742675 -1.74267518,1.742675 -0.96245298,0 -1.74267518,-0.780222 -1.74267518,-1.742675 0,-0.962453 0.7802222,-1.742675 1.74267518,-1.742675 0.96245293,0 1.74267518,0.780222 1.74267518,1.742675 z" sodipodi:ry="1.7426752" sodipodi:rx="1.7426752" sodipodi:cy="30.542675" sodipodi:cx="-0.76433122" id="path6420" style="fill:#df5757;fill-opacity:1;fill-rule:evenodd;stroke:#a40000;stroke-width:1.16178346;stroke-linecap:round;stroke-linejoin:round;stroke-miterlimit:4;stroke-opacity:1;stroke-dasharray:none;stroke-dashoffset:0" sodipodi:type="arc"/>
      <path transform="matrix(0.8607456,0,0,0.8607456,18.657895,-12.289473)" d="m 0.97834396,30.542675 c 0,0.962453 -0.78022225,1.742675 -1.74267518,1.742675 -0.96245298,0 -1.74267518,-0.780222 -1.74267518,-1.742675 0,-0.962453 0.7802222,-1.742675 1.74267518,-1.742675 0.96245293,0 1.74267518,0.780222 1.74267518,1.742675 z" sodipodi:ry="1.7426752" sodipodi:rx="1.7426752" sodipodi:cy="30.542675" sodipodi:cx="-0.76433122" id="path6422" style="fill:#df5757;fill-opacity:1;fill-rule:evenodd;stroke:#a40000;stroke-width:1.16178346;stroke-linecap:round;stroke-linejoin:round;stroke-miterlimit:4;stroke-opacity:1;stroke-dasharray:none;stroke-dashoffset:0" sodipodi:type="arc"/>
    </g>
  </g>
</svg>